<?xml version="1.0" encoding="UTF-8" standalone="no"?>
<svg
   xmlns:dc="http://purl.org/dc/elements/1.1/"
   xmlns:cc="http://creativecommons.org/ns#"
   xmlns:rdf="http://www.w3.org/1999/02/22-rdf-syntax-ns#"
   xmlns:svg="http://www.w3.org/2000/svg"
   xmlns="http://www.w3.org/2000/svg"
   xmlns:sodipodi="http://sodipodi.sourceforge.net/DTD/sodipodi-0.dtd"
   xmlns:inkscape="http://www.inkscape.org/namespaces/inkscape"
   version="1.1"
   viewBox="0 0 274.56826 91.522102"
   id="svg8"
   sodipodi:docname="EqualBot_black.svg"
   width="274.56827"
   height="91.522102"
   inkscape:version="0.92.1 r15371"
   inkscape:export-filename="D:\Dropbox-Array2001\Dropbox\Work\Psicobotica\CODE\LandingMachismo\EqualBotMini_300.png"
   inkscape:export-xdpi="100.88509"
   inkscape:export-ydpi="100.88509">
  <metadata
     id="metadata14">
    <rdf:RDF>
      <cc:Work
         rdf:about="">
        <dc:format>image/svg+xml</dc:format>
        <dc:type
           rdf:resource="http://purl.org/dc/dcmitype/StillImage" />
        <dc:title></dc:title>
      </cc:Work>
    </rdf:RDF>
  </metadata>
  <defs
     id="defs12" />
  <sodipodi:namedview
     pagecolor="#ffffff"
     bordercolor="#666666"
     borderopacity="1"
     objecttolerance="10"
     gridtolerance="5"
     guidetolerance="10"
     inkscape:pageopacity="0"
     inkscape:pageshadow="2"
     inkscape:window-width="1617"
     inkscape:window-height="867"
     id="namedview10"
     showgrid="false"
     fit-margin-top="0"
     fit-margin-left="0"
     fit-margin-right="0"
     fit-margin-bottom="0"
     inkscape:zoom="2.4782106"
     inkscape:cx="189.74903"
     inkscape:cy="0.29704226"
     inkscape:window-x="105"
     inkscape:window-y="57"
     inkscape:window-maximized="0"
     inkscape:current-layer="svg8"
     showguides="false" />
  <path
     inkscape:connector-curvature="0"
     id="path2"
     d="m 91.748363,2.3922704 c -2.3039,0.11773 -15.238,4.4854 -15.844,5.4375 -0.17487,0.275 -0.11343,1.1597 0.15625,1.9688 0.4243,1.2729996 1.0758,1.2613996 4.8438,-0.21875 2.3946,-0.94064 4.4798,-1.614 4.625,-1.4688 0.1452,0.1452 -1.9796,3.8001996 -4.7188,8.0937996 l -4.9688,7.781199 -3.9375,-0.65625 c -12.722,-2.149 -27.021,10.060001 -27,23.062001 0.014,8.659 8.0759,20.74 15,22.469 5.447,1.3602 14.565,0.4258 19.219,-2 4.5893,-2.4549 6.9579,-5.4688 9.1562,-9.25 3.081,-6.182 2.823,-14.949 -0.59375,-21.063 0,0 -1.9621,-3.4874 -2.7426,-4.553 -0.7805,-1.065501 -3.5242,-3.931001 -5.0387,-5.728301 0,-1.341 8.7824,-16.4379986 9.5625,-16.4379986 0.22194,0 0.3253,2.0205996 0.21875,4.4687996 -0.2049,4.7076 0.40535,6.144599 2.1562,5.0625 1.2781,-0.789 1.4784,-16.1589996 0.21875,-16.9379996 -0.0524,-0.0324 -0.15891,-0.0391 -0.3125,-0.0312 z m -23.844,24.7809986 c 2.791,-0.0949 5.5812,0.56737 8.2188,1.9688 3.6028,1.6616 6.1107,5.252301 8.375,8.156201 2.7162,3.675 3.69,9.4909 2.375,14.188 -1.5578,5.9457 -6.4112,10.183 -11.219,12.375 -5.863,2.6611 -10.443,2.4448 -16.812,-0.78125 -4.2509,-2.1531 -5.9259,-3.7252 -7.6875,-7.2188 -3.9014,-7.737 -2.5934,-15.783 3.5938,-22.281 3.8662,-4.061401 8.5046,-6.248101 13.156,-6.406201 z" />
  <path
     inkscape:connector-curvature="0"
     id="path4"
     d="m 33.521753,68.918218 c 0.57484,-0.223004 1.14788,-0.473876 1.72438,-0.738964 15.24351,-7.039122 17.57932,-29.252198 4.08664,-38.920292 -4.57246,-3.276294 -11.89231,-5.068043 -17.44124,-4.305659 l -3.75357,0.523444 c -1.15383,-3.295027 -2.43466,-6.543888 -3.56788,-9.84544 -1.14241,-2.57279 -1.17519,-4.386653 1.13738,-5.172029 2.31254,-0.7854186 6.54495,-1.5874386 4.89658,-4.3897496 -1.64831,-2.80228 -8.09378,2.404252 -9.01522,0.96378 -0.92145,-1.44045 -1.7734995,-7.99547004 -4.5508295,-6.91331304 -3.6853197,1.43595504 -0.82037,3.15984604 0.0617,8.56178704 0.33769,2.1344396 -7.58233971,2.7258116 -7.07643971,5.3396746 0.50589,2.613884 2.06052001,1.980231 5.01965971,0.660128 2.95916,-1.320056 4.8071,-0.590001 5.6767095,1.913401 1.1334,3.192763 4.83277,9.685288 1.84411,11.791014 -1.12199,0.887649 -3.7696595,3.998733 -5.8593995,6.911359 -2.8984297,4.039726 -3.8715097,6.277712 -4.1068597,9.515262 -0.37696,4.784838 1.25071,9.229682 3.0259197,12.672068 2.99986,5.819031 8.2926195,9.793561 15.6554295,11.775705 4.23702,1.647758 8.21816,1.218064 12.24181,-0.342841 z m -1.18032,-3.631783 c -3.30948,1.210091 -7.21972,0.932908 -10.30852,0.226834 -4.88834,-1.146923 -9.80375,-4.786388 -12.4471195,-9.135338 -1.69393,-3.447761 -3.17992,-6.459243 -3.13452,-10.282602 0.10157,-2.463893 1.4887,-6.203671 3.7817195,-9.489243 1.78342,-2.555443 3.89363,-4.819765 5.78713,-5.977719 3.92094,-2.397416 12.15889,-2.715101 17.54932,-0.666864 7.7079,2.928961 11.46003,11.01925 9.80454,21.031435 -1.11257,6.727455 -3.7904,10.708379 -8.8692,13.21553 -0.68337,0.451466 -1.39897,0.798195 -2.1626,1.077407 z" />
  <ellipse
     style="opacity:1;fill:#000004;fill-opacity:1;stroke:#3339b5;stroke-width:0;stroke-linecap:round;stroke-linejoin:bevel;stroke-miterlimit:4;stroke-dasharray:none;stroke-opacity:1;paint-order:stroke fill markers"
     id="path4493"
     cx="25.093834"
     cy="50.726246"
     rx="5.4925942"
     ry="5.7779241" />
  <path
     inkscape:connector-curvature="0"
     id="path182"
     d="m 72.612094,73.252483 -1.190271,1.278945 c -3.918218,4.303813 -8.180512,9.1476 -15.164097,11.638794 0.01278,0.01297 0.02061,0.0287 0.03335,0.04166 -0.623465,0.20166 -1.259436,0.382667 -1.900962,0.545354 -0.01418,0.0036 -0.02746,0.0082 -0.04162,0.01178 -8.08203,2.03779 -16.144364,1.998033 -21.075405,-2.00147 -0.506377,-0.584953 -3.321218,-2.293598 -3.674237,-2.903922 -3.725759,-3.355748 -5.891434,-3.994763 -7.724892,-8.029125 13.586823,7.105918 13.367003,8.269796 32.355489,7.644719 0.65826,-0.0071 3.536196,-0.404878 3.536196,-0.404878 5.10227,-1.56022 10.930784,-7.099963 14.846339,-7.821654 z"
     style="stroke-width:0.37403676"
     sodipodi:nodetypes="ccccccccccscc" />
  <path
     inkscape:connector-curvature="0"
     id="path150"
     d="m 59.315173,46.357216 c 0,0 4.3349,-7.974114 12.83508,-5.634319 8.50005,2.339643 4.80332,11.944602 4.80332,11.944602 0,0 -2.71234,-8.526217 -7.73025,-9.392657 -5.01792,-0.866442 -9.90769,3.082448 -9.90769,3.082448 z"
     style="stroke-width:0.39181814" />
  <path
     inkscape:connector-curvature="0"
     id="path150-6"
     d="m 16.811759,45.504465 c 0,0 4.04031,-8.127345 12.62039,-6.100043 8.57995,2.027154 5.23703,11.760907 5.23703,11.760907 0,0 -3.0224,-8.421295 -8.06865,-9.103606 -5.04625,-0.682312 -9.7883,3.442798 -9.7883,3.442798 z"
     style="stroke-width:0.39181814" />
  <ellipse
     style="opacity:1;fill:#000004;fill-opacity:1;stroke:#3339b5;stroke-width:0;stroke-linecap:round;stroke-linejoin:bevel;stroke-miterlimit:4;stroke-dasharray:none;stroke-opacity:1;paint-order:stroke fill markers"
     id="path4493-6"
     cx="67.609024"
     cy="51.597843"
     rx="5.4925942"
     ry="5.7779241" />
  <g
     id="g4634"
     transform="matrix(1.4,0,0,1.4,-57.301466,-21.730062)">
    <text
       id="text4732"
       y="50.653461"
       x="112.15136"
       style="font-style:normal;font-variant:normal;font-weight:normal;font-stretch:normal;font-size:35.20000076px;line-height:1.25;font-family:'Bauhaus 93';-inkscape-font-specification:'Bauhaus 93, ';letter-spacing:0px;word-spacing:0px;fill:#000000;fill-opacity:1;stroke:none;stroke-width:0.88"
       xml:space="preserve"><tspan
         style="font-style:normal;font-variant:normal;font-weight:normal;font-stretch:normal;font-family:'Tenby Five';-inkscape-font-specification:'Tenby Five';stroke-width:0.88"
         y="50.653461"
         x="112.15136"
         id="tspan4730"
         sodipodi:role="line">EqualBot</tspan></text>
    <text
       id="text8846-2"
       y="69.893875"
       x="114.52399"
       style="font-style:normal;font-variant:normal;font-weight:normal;font-stretch:normal;font-size:15.59999943px;line-height:1.25;font-family:'Bauhaus 93';-inkscape-font-specification:'Bauhaus 93, ';letter-spacing:0px;word-spacing:0px;display:inline;fill:#000000;fill-opacity:1;stroke:none;stroke-width:0.38999999"
       xml:space="preserve"><tspan
         style="font-style:normal;font-variant:normal;font-weight:normal;font-stretch:normal;font-family:Montserrat;-inkscape-font-specification:Montserrat;stroke-width:0.38999999"
         y="69.893875"
         x="114.52399"
         id="tspan8844-0"
         sodipodi:role="line">by Serendeepia</tspan></text>
  </g>
</svg>
